<?xml version="1.0" encoding="UTF-8"?>
<svg xmlns="http://www.w3.org/2000/svg" xmlns:xlink="http://www.w3.org/1999/xlink" viewBox="0 0 19 19" width="19px" height="19px">
<g id="surface22174333">
<path style=" stroke:none;fill-rule:nonzero;fill:rgb(68.235296%,53.333336%,74.117649%);fill-opacity:1;" d="M 9.5 0.761719 C 4.675781 0.761719 0.761719 4.675781 0.761719 9.5 C 0.761719 14.324219 4.675781 18.238281 9.5 18.238281 C 14.324219 18.238281 18.238281 14.324219 18.238281 9.5 C 18.238281 4.675781 14.324219 0.761719 9.5 0.761719 Z M 9.5 1.519531 C 13.910156 1.519531 17.480469 5.089844 17.480469 9.5 C 17.480469 13.910156 13.910156 17.480469 9.5 17.480469 C 5.089844 17.480469 1.519531 13.910156 1.519531 9.5 C 1.519531 5.089844 5.089844 1.519531 9.5 1.519531 Z M 9.121094 4.941406 L 9.121094 9.121094 L 4.941406 9.121094 L 4.941406 9.878906 L 9.121094 9.878906 L 9.121094 14.058594 L 9.878906 14.058594 L 9.878906 9.878906 L 14.058594 9.878906 L 14.058594 9.121094 L 9.878906 9.121094 L 9.878906 4.941406 Z M 9.121094 4.941406 "/>
</g>
</svg>
