<?xml version="1.0" encoding="UTF-8"?>
<svg xmlns="http://www.w3.org/2000/svg" xmlns:xlink="http://www.w3.org/1999/xlink" viewBox="0 0 20 20" width="20px" height="20px">
<g id="surface22151925">
<path style=" stroke:none;fill-rule:nonzero;fill:rgb(68.235296%,53.333336%,74.117649%);fill-opacity:1;" d="M 10 1.667969 C 5.40625 1.667969 1.667969 5.40625 1.667969 10 C 1.667969 14.59375 5.40625 18.332031 10 18.332031 C 14.59375 18.332031 18.332031 14.59375 18.332031 10 C 18.332031 5.40625 14.59375 1.667969 10 1.667969 Z M 10 3.332031 C 13.691406 3.332031 16.667969 6.308594 16.667969 10 C 16.667969 13.691406 13.691406 16.667969 10 16.667969 C 6.308594 16.667969 3.332031 13.691406 3.332031 10 C 3.332031 6.308594 6.308594 3.332031 10 3.332031 Z M 9.167969 5.832031 L 9.167969 9.167969 L 5.832031 9.167969 L 5.832031 10.832031 L 9.167969 10.832031 L 9.167969 14.167969 L 10.832031 14.167969 L 10.832031 10.832031 L 14.167969 10.832031 L 14.167969 9.167969 L 10.832031 9.167969 L 10.832031 5.832031 Z M 9.167969 5.832031 "/>
</g>
</svg>
